<svg width="1279" height="1279" viewBox="0 0 1279 1279" fill="none" xmlns="http://www.w3.org/2000/svg">
<g filter="url(#filter0_d_5_2)">
<path d="M893.82 150.12H385.06C255.284 150.12 150.08 255.324 150.08 385.1V893.86C150.08 1023.64 255.284 1128.84 385.06 1128.84H893.82C1023.6 1128.84 1128.8 1023.64 1128.8 893.86V385.1C1128.8 255.324 1023.6 150.12 893.82 150.12Z" fill="url(#paint0_linear_5_2)"/>
</g>
<path d="M841.47 204.1H437.41C308.534 204.1 204.06 308.574 204.06 437.45V841.51C204.06 970.386 308.534 1074.86 437.41 1074.86H841.47C970.346 1074.86 1074.82 970.386 1074.82 841.51V437.45C1074.82 308.574 970.346 204.1 841.47 204.1Z" fill="url(#paint1_radial_5_2)"/>
<path d="M717.176 711.088V718.768C717.176 727.984 715.128 734.981 711.032 739.76C707.277 744.197 700.621 748.464 691.064 752.56L543.608 816.56C532.344 821.339 525.176 823.728 522.104 823.728C513.912 823.728 509.816 817.925 509.816 806.32V803.76C509.816 794.203 515.107 787.035 525.688 782.256C604.195 748.805 652.664 727.984 671.096 719.792V710.064C653.688 702.555 628.6 691.803 595.832 677.808C563.405 663.813 540.195 653.744 526.2 647.6C515.277 644.187 509.816 636.848 509.816 625.584V623.024C509.816 611.419 513.741 605.616 521.592 605.616C525.347 605.616 528.931 606.299 532.344 607.664C618.701 645.893 669.048 668.08 683.384 674.224C697.72 680.368 706.936 686 711.032 691.12C715.128 695.899 717.176 702.555 717.176 711.088ZM681.2 878H952.048C964.677 878 970.992 883.632 970.992 894.896C970.992 906.16 964.677 911.792 952.048 911.792H681.2C668.571 911.792 662.256 906.16 662.256 894.896C662.256 883.632 668.571 878 681.2 878Z" fill="black"/>
<path d="M717.176 711.088V718.768C717.176 727.984 715.128 734.981 711.032 739.76C707.277 744.197 700.621 748.464 691.064 752.56L543.608 816.56C532.344 821.339 525.176 823.728 522.104 823.728C513.912 823.728 509.816 817.925 509.816 806.32V803.76C509.816 794.203 515.107 787.035 525.688 782.256C604.195 748.805 652.664 727.984 671.096 719.792V710.064C653.688 702.555 628.6 691.803 595.832 677.808C563.405 663.813 540.195 653.744 526.2 647.6C515.277 644.187 509.816 636.848 509.816 625.584V623.024C509.816 611.419 513.741 605.616 521.592 605.616C525.347 605.616 528.931 606.299 532.344 607.664C618.701 645.893 669.048 668.08 683.384 674.224C697.72 680.368 706.936 686 711.032 691.12C715.128 695.899 717.176 702.555 717.176 711.088ZM681.2 878H952.048C964.677 878 970.992 883.632 970.992 894.896C970.992 906.16 964.677 911.792 952.048 911.792H681.2C668.571 911.792 662.256 906.16 662.256 894.896C662.256 883.632 668.571 878 681.2 878Z" fill="url(#paint2_linear_5_2)"/>
<defs>
<filter id="filter0_d_5_2" x="50.08" y="50.12" width="1178.72" height="1178.72" filterUnits="userSpaceOnUse" color-interpolation-filters="sRGB">
<feFlood flood-opacity="0" result="BackgroundImageFix"/>
<feColorMatrix in="SourceAlpha" type="matrix" values="0 0 0 0 0 0 0 0 0 0 0 0 0 0 0 0 0 0 127 0" result="hardAlpha"/>
<feOffset/>
<feGaussianBlur stdDeviation="50"/>
<feColorMatrix type="matrix" values="0 0 0 0 0.501961 0 0 0 0 0.317647 0 0 0 0 0.592157 0 0 0 1 0"/>
<feBlend mode="normal" in2="BackgroundImageFix" result="effect1_dropShadow_5_2"/>
<feBlend mode="normal" in="SourceGraphic" in2="effect1_dropShadow_5_2" result="shape"/>
</filter>
<linearGradient id="paint0_linear_5_2" x1="150.08" y1="639.48" x2="1128.8" y2="639.48" gradientUnits="userSpaceOnUse">
<stop stop-color="#E8E8E8"/>
<stop offset="1" stop-color="#ABAAAA"/>
</linearGradient>
<radialGradient id="paint1_radial_5_2" cx="0" cy="0" r="1" gradientUnits="userSpaceOnUse" gradientTransform="translate(108 309.5) rotate(37.4254) scale(1134.55 1134.55)">
<stop stop-color="#C2D1DA"/>
<stop offset="0.5" stop-color="#E5E5E5"/>
</radialGradient>
<linearGradient id="paint2_linear_5_2" x1="689.5" y1="412" x2="814.274" y2="776.338" gradientUnits="userSpaceOnUse">
<stop stop-color="#8CD5FF"/>
<stop offset="1" stop-color="#A668C3"/>
</linearGradient>
</defs>
</svg>
