<svg width="1279" height="1279" viewBox="0 0 1279 1279" fill="none" xmlns="http://www.w3.org/2000/svg">
<g filter="url(#filter0_d_5_2)">
<path d="M893.82 150.12H385.06C255.284 150.12 150.08 255.324 150.08 385.1V893.86C150.08 1023.64 255.284 1128.84 385.06 1128.84H893.82C1023.6 1128.84 1128.8 1023.64 1128.8 893.86V385.1C1128.8 255.324 1023.6 150.12 893.82 150.12Z" fill="url(#paint0_linear_5_2)"/>
</g>
<path d="M841.47 204.1H437.41C308.534 204.1 204.06 308.574 204.06 437.45V841.51C204.06 970.386 308.534 1074.86 437.41 1074.86H841.47C970.346 1074.86 1074.82 970.386 1074.82 841.51V437.45C1074.82 308.574 970.346 204.1 841.47 204.1Z" fill="url(#paint1_radial_5_2)"/>
<path d="M698.176 767.088V774.768C698.176 783.984 696.128 790.981 692.032 795.76C688.277 800.197 681.621 804.464 672.064 808.56L524.608 872.56C513.344 877.339 506.176 879.728 503.104 879.728C494.912 879.728 490.816 873.925 490.816 862.32V859.76C490.816 850.203 496.107 843.035 506.688 838.256C585.195 804.805 633.664 783.984 652.096 775.792V766.064C634.688 758.555 609.6 747.803 576.832 733.808C544.405 719.813 521.195 709.744 507.2 703.6C496.277 700.187 490.816 692.848 490.816 681.584V679.024C490.816 667.419 494.741 661.616 502.592 661.616C506.347 661.616 509.931 662.299 513.344 663.664C599.701 701.893 650.048 724.08 664.384 730.224C678.72 736.368 687.936 742 692.032 747.12C696.128 751.899 698.176 758.555 698.176 767.088ZM662.2 934H933.048C945.677 934 951.992 939.632 951.992 950.896C951.992 962.16 945.677 967.792 933.048 967.792H662.2C649.571 967.792 643.256 962.16 643.256 950.896C643.256 939.632 649.571 934 662.2 934Z" fill="black"/>
<path d="M698.176 767.088V774.768C698.176 783.984 696.128 790.981 692.032 795.76C688.277 800.197 681.621 804.464 672.064 808.56L524.608 872.56C513.344 877.339 506.176 879.728 503.104 879.728C494.912 879.728 490.816 873.925 490.816 862.32V859.76C490.816 850.203 496.107 843.035 506.688 838.256C585.195 804.805 633.664 783.984 652.096 775.792V766.064C634.688 758.555 609.6 747.803 576.832 733.808C544.405 719.813 521.195 709.744 507.2 703.6C496.277 700.187 490.816 692.848 490.816 681.584V679.024C490.816 667.419 494.741 661.616 502.592 661.616C506.347 661.616 509.931 662.299 513.344 663.664C599.701 701.893 650.048 724.08 664.384 730.224C678.72 736.368 687.936 742 692.032 747.12C696.128 751.899 698.176 758.555 698.176 767.088ZM662.2 934H933.048C945.677 934 951.992 939.632 951.992 950.896C951.992 962.16 945.677 967.792 933.048 967.792H662.2C649.571 967.792 643.256 962.16 643.256 950.896C643.256 939.632 649.571 934 662.2 934Z" fill="url(#paint2_linear_5_2)"/>
<defs>
<filter id="filter0_d_5_2" x="50.08" y="50.12" width="1178.72" height="1178.72" filterUnits="userSpaceOnUse" color-interpolation-filters="sRGB">
<feFlood flood-opacity="0" result="BackgroundImageFix"/>
<feColorMatrix in="SourceAlpha" type="matrix" values="0 0 0 0 0 0 0 0 0 0 0 0 0 0 0 0 0 0 127 0" result="hardAlpha"/>
<feOffset/>
<feGaussianBlur stdDeviation="50"/>
<feColorMatrix type="matrix" values="0 0 0 0 0.501961 0 0 0 0 0.317647 0 0 0 0 0.592157 0 0 0 1 0"/>
<feBlend mode="normal" in2="BackgroundImageFix" result="effect1_dropShadow_5_2"/>
<feBlend mode="normal" in="SourceGraphic" in2="effect1_dropShadow_5_2" result="shape"/>
</filter>
<linearGradient id="paint0_linear_5_2" x1="150.08" y1="639.48" x2="1128.8" y2="639.48" gradientUnits="userSpaceOnUse">
<stop stop-color="#E8E8E8"/>
<stop offset="1" stop-color="#ABAAAA"/>
</linearGradient>
<radialGradient id="paint1_radial_5_2" cx="0" cy="0" r="1" gradientUnits="userSpaceOnUse" gradientTransform="translate(108 309.5) rotate(37.4254) scale(1134.55 1134.55)">
<stop stop-color="#C2D1DA"/>
<stop offset="0.5" stop-color="#E5E5E5"/>
</radialGradient>
<linearGradient id="paint2_linear_5_2" x1="670.5" y1="468" x2="795.274" y2="832.338" gradientUnits="userSpaceOnUse">
<stop stop-color="#8CD5FF"/>
<stop offset="1" stop-color="#A668C3"/>
</linearGradient>
</defs>
</svg>
